<svg width="22" height="16" viewBox="0 0 22 16" fill="none" xmlns="http://www.w3.org/2000/svg">
<path fill-rule="evenodd" clip-rule="evenodd" d="M20.8382 1.15941C21.1789 1.51057 21.4208 1.94541 21.5396 2.42C21.8568 4.1787 22.0108 5.96295 21.9996 7.75C22.0059 9.51033 21.852 11.2676 21.5396 13C21.4208 13.4746 21.1789 13.9094 20.8382 14.2606C20.4976 14.6118 20.0703 14.8668 19.5996 15C17.8796 15.46 10.9996 15.46 10.9996 15.46C10.9996 15.46 4.1196 15.46 2.3996 15C1.93842 14.8738 1.51758 14.6308 1.17774 14.2945C0.837902 13.9581 0.590554 13.5398 0.459595 13.08C0.142363 11.3213 -0.0116256 9.53704 -0.000404918 7.75C-0.00916899 5.97631 0.14481 4.20556 0.459595 2.46C0.578384 1.98541 0.820311 1.55057 1.16094 1.19941C1.50157 0.84824 1.92884 0.593185 2.3996 0.46C4.1196 0 10.9996 0 10.9996 0C10.9996 0 17.8796 1.19209e-07 19.5996 0.42C20.0703 0.553185 20.4976 0.808241 20.8382 1.15941ZM14.5 7.75003L8.75001 11.02V4.48003L14.5 7.75003Z" fill="black"/>
</svg>
